<svg id="svg" version="1.1" xmlns="http://www.w3.org/2000/svg" xmlns:xlink="http://www.w3.org/1999/xlink" width="400" height="400" viewBox="0, 0, 400,400"><g id="svgg"><path id="path0" d="M38.400 133.207 C 38.400 134.030,38.670 135.349,39.000 136.138 C 39.330 136.928,39.600 138.084,39.600 138.707 C 39.600 139.330,39.825 140.065,40.100 140.340 C 40.493 140.733,40.643 152.488,40.803 195.320 L 41.005 249.800 42.052 252.800 C 42.627 254.450,43.326 257.037,43.603 258.548 C 43.952 260.444,44.441 261.684,45.180 262.548 C 45.769 263.237,46.554 264.614,46.924 265.608 C 47.602 267.433,49.878 270.789,51.935 273.000 C 52.550 273.660,53.366 274.705,53.749 275.321 C 54.133 275.938,54.751 276.549,55.123 276.678 C 55.495 276.807,56.445 277.563,57.232 278.357 C 59.676 280.819,61.985 282.471,64.114 283.280 C 65.239 283.708,66.728 284.556,67.421 285.165 C 68.274 285.913,69.514 286.436,71.242 286.775 C 72.649 287.051,74.834 287.711,76.097 288.243 C 79.829 289.811,84.996 289.986,128.200 290.008 C 163.851 290.026,168.906 290.103,171.200 290.669 C 172.650 291.026,176.232 291.387,179.300 291.485 L 184.800 291.660 184.800 289.465 C 184.800 288.258,184.530 285.860,184.200 284.135 C 183.769 281.884,183.600 278.259,183.600 271.280 C 183.600 263.350,183.488 261.343,182.990 260.380 L 182.379 259.200 135.690 259.198 L 89.000 259.195 84.776 258.050 C 78.138 256.250,74.123 252.811,73.224 248.152 C 72.975 246.859,72.648 245.440,72.498 245.000 C 72.348 244.560,72.130 219.542,72.013 189.405 L 71.800 134.611 70.600 134.007 C 69.679 133.544,67.028 133.335,59.200 133.107 C 53.590 132.944,47.380 132.629,45.400 132.408 C 43.420 132.187,41.035 131.940,40.100 131.859 L 38.400 131.713 38.400 133.207 M205.336 133.739 C 205.450 134.873,205.757 136.790,206.019 138.000 C 206.281 139.210,206.609 145.177,206.747 151.259 C 206.978 161.340,207.067 162.392,207.757 163.153 L 208.514 163.988 261.157 164.094 C 309.723 164.192,313.908 164.253,315.200 164.879 C 315.970 165.252,317.680 165.923,319.000 166.370 C 327.902 169.383,330.586 182.853,323.820 190.560 C 321.961 192.677,321.267 193.171,319.312 193.772 C 318.040 194.162,316.505 194.725,315.900 195.022 C 314.929 195.499,314.800 195.486,314.800 194.912 C 314.800 194.392,314.591 194.457,313.768 195.230 L 312.736 196.200 272.468 196.330 C 246.491 196.413,230.638 196.311,227.800 196.041 C 225.380 195.811,221.555 195.513,219.300 195.379 L 215.200 195.136 215.200 196.719 C 215.200 197.626,215.452 198.511,215.789 198.791 C 216.114 199.060,216.484 199.937,216.612 200.740 C 216.740 201.543,217.104 202.791,217.422 203.514 C 217.877 204.548,218.000 207.026,218.000 215.168 L 218.000 225.509 219.360 226.154 C 220.587 226.736,225.089 226.800,265.060 226.803 C 313.640 226.806,314.413 226.838,318.825 228.985 C 326.264 232.605,327.993 236.814,327.998 251.310 L 328.000 258.020 329.026 258.410 C 329.590 258.624,333.542 258.800,337.807 258.800 C 345.244 258.800,347.600 259.110,347.600 260.088 C 347.600 260.285,347.776 260.339,347.991 260.206 C 348.524 259.876,351.600 260.737,351.600 261.215 C 351.600 261.431,353.091 261.600,355.000 261.600 L 358.400 261.600 358.400 260.000 L 358.400 258.400 360.000 258.400 C 361.813 258.400,362.255 256.589,361.040 254.132 C 360.026 252.081,359.600 250.177,359.600 247.693 C 359.600 243.431,358.747 235.057,358.206 234.009 C 357.813 233.248,356.000 225.907,356.000 225.079 C 356.000 225.005,355.481 224.363,354.846 223.652 C 354.212 222.941,353.460 221.529,353.176 220.513 C 352.891 219.498,352.177 218.112,351.588 217.434 C 350.999 216.755,349.996 215.408,349.359 214.440 C 348.721 213.472,348.046 212.478,347.859 212.230 C 347.501 211.758,348.355 210.186,350.744 206.916 C 351.484 205.905,352.621 203.890,353.271 202.438 C 353.921 200.987,354.801 199.429,355.226 198.975 C 355.691 198.479,356.320 196.646,356.805 194.375 C 357.248 192.299,357.924 189.790,358.306 188.800 C 359.416 185.921,359.302 174.268,358.131 171.000 C 357.658 169.680,357.064 167.458,356.811 166.061 C 356.252 162.976,355.755 161.604,354.989 161.033 C 354.670 160.795,353.980 159.498,353.454 158.151 C 351.247 152.490,341.993 142.773,336.200 140.033 C 335.100 139.513,333.814 138.739,333.342 138.313 C 332.870 137.888,331.070 137.179,329.342 136.737 C 327.614 136.296,325.636 135.588,324.948 135.164 C 322.286 133.526,321.536 133.500,267.800 133.175 C 234.613 132.974,214.498 132.702,212.200 132.423 C 210.220 132.182,207.819 131.916,206.865 131.832 L 205.130 131.678 205.336 133.739 M201.902 255.466 C 202.179 255.577,202.304 255.832,202.180 256.033 C 202.046 256.250,202.328 256.257,202.877 256.052 C 203.385 255.861,205.507 255.670,207.593 255.627 C 209.679 255.583,211.464 255.470,211.559 255.374 C 211.655 255.278,209.408 255.214,206.567 255.232 C 203.725 255.249,201.626 255.354,201.902 255.466 M316.200 258.512 C 315.276 259.076,219.054 259.169,208.740 258.616 C 201.641 258.235,201.806 258.112,202.188 263.527 C 202.322 265.437,202.523 271.905,202.634 277.899 L 202.836 288.798 203.998 289.399 C 205.015 289.925,211.831 290.000,258.480 290.000 C 306.706 290.001,312.087 290.064,314.800 290.665 C 316.450 291.031,320.203 291.401,323.140 291.487 L 328.480 291.644 328.227 288.122 C 327.560 278.834,327.521 268.464,328.145 266.335 C 328.514 265.077,328.618 264.063,328.404 263.805 C 328.208 263.569,327.899 262.489,327.718 261.404 C 327.319 259.029,327.012 258.897,321.724 258.840 C 319.702 258.818,317.936 258.620,317.800 258.400 C 317.484 257.889,317.188 257.910,316.200 258.512 M330.900 287.465 C 330.204 287.746,330.273 288.400,331.000 288.400 C 331.330 288.400,331.600 288.130,331.600 287.800 C 331.600 287.470,331.555 287.214,331.500 287.232 C 331.445 287.249,331.175 287.354,330.900 287.465 " stroke="none" fill="#dc3c4c" fill-rule="evenodd"></path><path id="path1" d="M25.467 138.667 C 25.320 138.813,25.211 164.958,25.225 196.767 C 25.241 231.670,25.394 254.243,25.612 253.700 C 25.876 253.044,26.303 252.800,27.187 252.800 L 28.400 252.800 28.400 260.600 L 28.400 268.400 29.983 268.400 L 31.566 268.400 31.683 271.500 L 31.800 274.600 33.500 274.723 L 35.200 274.846 35.200 276.623 L 35.200 278.400 36.800 278.400 L 38.400 278.400 38.400 280.000 C 38.400 281.333,38.533 281.600,39.200 281.600 C 40.230 281.600,41.600 282.970,41.600 284.000 C 41.600 284.681,41.867 284.800,43.400 284.800 L 45.200 284.800 45.200 286.600 L 45.200 288.400 46.800 288.400 L 48.400 288.400 48.400 290.000 L 48.400 291.600 50.000 291.600 C 51.593 291.600,51.994 292.306,51.647 294.500 C 51.621 294.665,53.130 294.800,55.000 294.800 L 58.400 294.800 58.400 296.000 C 58.400 296.660,58.385 297.315,58.366 297.455 C 58.255 298.286,64.497 298.388,115.500 298.394 L 171.600 298.400 171.600 297.470 C 171.600 296.397,173.125 294.800,174.149 294.800 C 174.722 294.800,174.824 294.497,174.723 293.100 C 174.508 290.133,176.746 290.276,125.800 289.978 C 80.478 289.713,78.811 289.654,76.028 288.214 C 75.377 287.878,73.380 287.261,71.589 286.844 C 69.375 286.329,67.993 285.763,67.267 285.074 C 66.680 284.517,65.271 283.711,64.134 283.282 C 61.989 282.473,59.687 280.830,57.232 278.357 C 56.445 277.563,55.495 276.807,55.123 276.678 C 54.751 276.549,54.133 275.938,53.749 275.321 C 53.366 274.705,52.550 273.660,51.935 273.000 C 49.878 270.789,47.602 267.433,46.924 265.608 C 46.554 264.614,45.769 263.237,45.180 262.548 C 44.441 261.684,43.952 260.444,43.603 258.548 C 43.326 257.037,42.627 254.450,42.052 252.800 L 41.005 249.800 40.803 195.361 C 40.587 137.525,40.689 140.448,38.843 138.900 C 38.206 138.365,25.981 138.152,25.467 138.667 M191.830 138.752 C 191.710 138.946,191.654 146.371,191.706 155.252 L 191.800 171.400 193.500 171.523 C 195.192 171.645,195.200 171.654,195.200 173.223 L 195.200 174.800 251.800 174.800 L 308.400 174.800 308.400 176.600 L 308.400 178.400 310.000 178.400 L 311.600 178.400 311.600 181.351 C 311.600 184.682,311.967 185.262,313.884 184.959 C 315.704 184.673,316.076 187.795,314.974 194.107 L 314.711 195.614 315.855 195.048 C 316.485 194.736,318.040 194.162,319.312 193.772 C 330.411 190.364,330.181 170.154,319.000 166.370 C 317.680 165.923,315.970 165.252,315.200 164.879 C 313.908 164.253,309.723 164.192,261.157 164.094 L 208.514 163.988 207.757 163.153 C 207.064 162.388,206.983 161.383,206.800 151.200 C 206.547 137.147,207.354 138.400,198.562 138.400 C 194.979 138.400,191.949 138.558,191.830 138.752 M205.553 198.700 C 205.527 198.865,205.532 206.650,205.564 216.000 C 205.596 225.350,205.618 233.405,205.611 233.900 L 205.600 234.800 253.600 234.800 L 301.600 234.800 301.600 236.000 C 301.600 236.660,301.398 237.200,301.151 237.200 C 300.841 237.200,300.856 237.385,301.200 237.800 C 301.570 238.246,302.558 238.400,305.049 238.400 L 308.400 238.400 308.400 240.000 L 308.400 241.600 310.000 241.600 L 311.600 241.600 311.600 244.167 C 311.600 247.663,311.778 248.000,313.624 248.000 C 315.409 248.000,315.710 248.645,316.408 253.968 C 317.009 258.547,317.275 258.792,321.709 258.840 C 327.065 258.898,327.331 259.016,327.728 261.506 C 328.223 264.616,329.366 265.405,333.856 265.733 C 338.136 266.046,340.159 266.575,341.149 267.637 C 341.792 268.328,342.319 268.420,345.046 268.318 L 348.200 268.200 348.323 266.500 C 348.445 264.808,348.454 264.800,350.023 264.800 C 352.488 264.800,352.487 261.844,350.022 261.450 C 349.154 261.311,348.209 260.867,347.922 260.462 C 346.860 258.966,345.853 258.800,337.852 258.800 C 333.562 258.800,329.590 258.624,329.026 258.410 L 328.000 258.020 327.998 251.310 C 327.993 236.814,326.264 232.605,318.825 228.985 C 314.413 226.838,313.640 226.806,265.060 226.803 C 225.089 226.800,220.587 226.736,219.360 226.154 L 218.000 225.509 218.000 215.135 C 218.000 204.102,217.829 202.979,215.996 201.998 C 215.407 201.683,215.200 201.160,215.200 199.986 L 215.200 198.400 210.400 198.400 C 207.760 198.400,205.579 198.535,205.553 198.700 M197.641 263.230 C 197.125 263.929,195.895 264.649,194.182 265.257 C 190.547 266.547,190.400 266.897,190.400 274.252 C 190.400 279.957,190.139 281.749,188.960 284.132 C 188.030 286.013,188.170 294.800,189.130 294.800 C 190.010 294.800,191.464 296.291,191.666 297.400 C 191.893 298.650,314.800 298.869,314.800 297.619 C 314.800 296.608,316.608 294.800,317.618 294.800 C 318.262 294.800,318.400 294.521,318.400 293.224 C 318.400 289.899,320.300 290.001,258.480 290.000 C 211.469 290.000,205.021 289.928,203.980 289.390 L 202.800 288.779 202.800 278.449 C 202.800 266.854,202.724 266.429,200.189 263.894 L 198.442 262.147 197.641 263.230 " stroke="none" fill="#0ef4f4" fill-rule="evenodd"></path><path id="path2" d="M51.871 121.862 C 51.722 122.011,51.600 122.432,51.600 122.797 C 51.600 123.640,49.961 125.200,49.074 125.200 C 48.554 125.200,48.400 125.566,48.400 126.800 L 48.400 128.400 45.633 128.400 C 42.445 128.400,41.600 128.634,41.600 129.517 C 41.600 129.864,41.251 130.520,40.824 130.974 C 40.055 131.793,40.056 131.801,40.924 131.901 C 47.364 132.647,50.501 132.854,59.200 133.107 C 67.028 133.335,69.679 133.544,70.600 134.007 L 71.800 134.611 72.013 189.405 C 72.130 219.542,72.348 244.560,72.498 245.000 C 72.648 245.440,72.975 246.859,73.224 248.152 C 74.123 252.811,78.138 256.250,84.776 258.050 L 89.000 259.195 135.690 259.198 L 182.379 259.200 182.990 260.380 C 183.488 261.343,183.600 263.350,183.600 271.280 C 183.600 278.259,183.769 281.884,184.200 284.135 C 184.530 285.860,184.800 287.916,184.800 288.705 L 184.800 290.139 185.700 289.310 C 186.195 288.853,186.960 288.415,187.400 288.337 C 187.991 288.231,188.230 287.829,188.314 286.797 C 188.377 286.029,188.672 284.860,188.970 284.200 C 190.162 281.554,190.400 279.899,190.400 274.252 C 190.400 266.897,190.547 266.547,194.182 265.257 C 195.926 264.638,197.123 263.931,197.662 263.202 L 198.484 262.090 199.888 263.645 C 201.790 265.750,202.000 265.633,202.000 262.476 C 202.000 258.216,201.971 258.232,208.834 258.613 C 212.005 258.789,237.280 258.948,265.000 258.967 C 318.165 259.002,317.676 259.018,317.010 257.282 C 316.872 256.921,316.592 255.360,316.388 253.813 C 315.709 248.647,315.400 248.000,313.615 248.000 C 312.751 248.000,311.978 247.779,311.865 247.500 C 311.744 247.201,311.650 247.282,311.632 247.700 C 311.602 248.363,309.026 248.400,263.400 248.400 C 217.001 248.400,215.200 248.427,215.200 249.130 C 215.200 250.011,213.708 251.465,212.600 251.664 C 211.955 251.779,211.776 252.174,211.678 253.704 L 211.556 255.600 207.978 255.600 C 203.893 255.600,204.100 255.582,202.877 256.047 C 202.280 256.274,202.041 256.257,202.201 255.999 C 202.336 255.779,202.257 255.600,202.024 255.600 C 201.791 255.600,201.600 255.870,201.600 256.200 C 201.600 257.055,200.142 258.400,199.216 258.400 C 198.511 258.400,198.421 258.071,198.316 255.104 C 198.213 252.172,198.112 251.793,197.400 251.664 C 196.292 251.465,194.800 250.010,194.800 249.130 C 194.800 248.427,192.919 248.400,144.070 248.400 L 93.339 248.400 92.470 247.474 C 91.991 246.965,91.600 246.245,91.600 245.874 C 91.600 245.488,91.288 245.200,90.870 245.200 C 90.468 245.200,89.749 244.784,89.271 244.276 L 88.403 243.351 88.301 184.381 C 88.205 128.148,88.167 125.405,87.486 125.273 C 86.566 125.096,84.904 123.434,84.727 122.514 C 84.585 121.778,52.590 121.144,51.871 121.862 M218.668 121.865 C 218.521 122.013,218.400 122.432,218.400 122.797 C 218.400 123.640,216.761 125.200,215.874 125.200 C 215.354 125.200,215.200 125.566,215.200 126.800 L 215.200 128.400 211.800 128.400 C 208.481 128.400,208.400 128.423,208.400 129.357 C 208.400 129.884,208.130 130.418,207.800 130.545 C 206.927 130.880,207.065 131.462,208.100 131.807 C 210.690 132.670,220.172 132.887,267.800 133.175 C 321.536 133.500,322.286 133.526,324.948 135.164 C 325.636 135.588,327.614 136.296,329.342 136.737 C 331.070 137.179,332.870 137.888,333.342 138.313 C 333.814 138.739,335.100 139.513,336.200 140.033 C 341.993 142.773,351.247 152.490,353.454 158.151 C 353.980 159.498,354.670 160.795,354.989 161.033 C 355.755 161.604,356.252 162.976,356.811 166.061 C 357.064 167.458,357.658 169.680,358.131 171.000 C 359.302 174.268,359.416 185.921,358.306 188.800 C 357.924 189.790,357.248 192.299,356.805 194.375 C 356.320 196.646,355.691 198.479,355.226 198.975 C 354.801 199.429,353.921 200.987,353.271 202.438 C 352.621 203.890,351.484 205.905,350.744 206.916 C 348.355 210.186,347.501 211.758,347.859 212.230 C 348.046 212.478,348.721 213.472,349.359 214.440 C 349.996 215.408,350.999 216.755,351.588 217.434 C 352.177 218.112,352.891 219.498,353.176 220.513 C 353.460 221.529,354.212 222.941,354.846 223.652 C 355.481 224.363,356.000 225.005,356.000 225.079 C 356.000 225.907,357.813 233.248,358.206 234.009 C 358.747 235.057,359.600 243.431,359.600 247.693 C 359.600 249.927,359.892 251.386,360.843 253.900 C 361.322 255.168,371.600 255.330,371.600 254.070 C 371.600 253.172,373.208 251.600,374.126 251.600 C 374.743 251.600,374.800 250.612,374.800 240.000 C 374.800 229.036,374.760 228.400,374.070 228.400 C 372.257 228.400,371.600 226.824,371.600 222.474 C 371.600 218.667,371.548 218.400,370.800 218.400 C 369.277 218.400,368.449 217.038,368.320 214.324 C 368.217 212.173,368.084 211.787,367.400 211.664 C 365.210 211.270,364.800 210.218,364.800 205.000 C 364.800 199.782,365.210 198.730,367.400 198.336 C 368.084 198.213,368.217 197.827,368.320 195.676 C 368.449 192.962,369.277 191.600,370.800 191.600 C 371.548 191.600,371.600 191.333,371.600 187.470 C 371.600 183.100,372.245 181.600,374.126 181.600 C 374.736 181.600,374.800 180.823,374.800 173.400 C 374.800 165.728,374.753 165.200,374.070 165.200 C 372.257 165.200,371.600 163.624,371.600 159.274 C 371.600 155.596,371.529 155.200,370.870 155.200 C 369.443 155.200,368.455 153.571,368.323 151.002 C 368.219 148.974,368.078 148.586,367.400 148.464 C 366.292 148.265,364.800 146.811,364.800 145.930 C 364.800 145.490,364.510 145.200,364.070 145.200 C 362.549 145.200,361.600 143.538,361.600 140.874 C 361.600 138.667,361.514 138.400,360.800 138.400 C 359.770 138.400,358.400 137.030,358.400 136.000 C 358.400 135.284,358.133 135.200,355.870 135.200 C 353.089 135.200,351.600 134.249,351.600 132.474 C 351.600 131.824,351.360 131.600,350.662 131.600 C 349.519 131.600,348.400 130.446,348.400 129.269 C 348.400 128.469,348.200 128.400,345.870 128.400 C 343.196 128.400,341.600 127.456,341.600 125.874 C 341.600 125.273,340.977 125.200,335.870 125.200 C 329.696 125.200,328.748 124.873,328.334 122.600 C 328.187 121.791,219.471 121.063,218.668 121.865 M28.579 135.566 C 28.704 135.768,28.338 136.488,27.767 137.166 L 26.729 138.400 32.391 138.400 C 35.529 138.400,38.397 138.585,38.826 138.814 C 39.752 139.309,39.868 138.489,39.161 136.460 L 38.722 135.200 33.537 135.200 C 30.503 135.200,28.447 135.352,28.579 135.566 M195.200 135.874 C 195.200 136.245,194.809 136.965,194.330 137.474 L 193.461 138.400 199.250 138.400 C 203.220 138.400,205.191 138.551,205.520 138.880 C 206.142 139.502,206.196 137.114,205.586 135.974 C 204.994 134.867,195.200 134.774,195.200 135.874 M194.200 172.400 C 194.598 172.840,194.986 173.200,195.062 173.200 C 195.138 173.200,195.200 172.840,195.200 172.400 C 195.200 171.847,194.933 171.600,194.338 171.600 C 193.501 171.600,193.497 171.624,194.200 172.400 M307.400 175.600 C 307.798 176.040,308.186 176.400,308.262 176.400 C 308.338 176.400,308.400 176.040,308.400 175.600 C 308.400 175.047,308.133 174.800,307.538 174.800 C 306.701 174.800,306.697 174.824,307.400 175.600 M310.400 178.551 C 310.400 178.634,310.670 178.926,311.000 179.200 C 311.491 179.608,311.600 179.580,311.600 179.049 C 311.600 178.692,311.330 178.400,311.000 178.400 C 310.670 178.400,310.400 178.468,310.400 178.551 M311.600 184.751 C 311.600 185.080,300.492 185.200,270.000 185.200 C 229.991 185.200,228.400 185.228,228.400 185.930 C 228.400 186.828,226.792 188.400,225.874 188.400 C 225.354 188.400,225.200 188.766,225.200 190.000 L 225.200 191.600 221.976 191.600 C 219.929 191.600,218.843 191.746,219.000 192.000 C 219.136 192.220,219.057 192.400,218.824 192.400 C 218.591 192.400,218.400 192.613,218.400 192.874 C 218.400 193.135,218.023 193.750,217.562 194.241 L 216.724 195.133 218.862 195.350 C 226.108 196.086,233.110 196.200,270.858 196.200 C 312.012 196.200,312.731 196.187,313.591 195.408 C 316.261 192.992,316.479 184.550,313.860 184.963 C 313.184 185.070,312.398 184.965,312.115 184.730 C 311.747 184.424,311.600 184.430,311.600 184.751 M215.200 199.900 C 215.200 201.201,215.391 201.674,216.060 202.032 C 216.885 202.473,216.910 202.431,216.673 200.974 C 216.281 198.555,215.200 197.768,215.200 199.900 M204.258 200.732 C 203.850 201.185,203.130 201.610,202.658 201.678 L 201.800 201.800 201.696 218.072 C 201.592 234.152,201.601 234.346,202.408 234.603 C 203.455 234.935,205.063 236.539,205.394 237.581 C 205.649 238.384,205.874 238.388,253.676 238.397 C 296.430 238.405,301.648 238.340,301.203 237.803 C 300.858 237.388,300.842 237.200,301.151 237.200 C 301.398 237.200,301.600 236.660,301.600 236.000 L 301.600 234.800 253.600 234.800 L 205.600 234.800 205.590 233.900 C 205.585 233.405,205.574 226.790,205.565 219.200 C 205.546 202.445,205.340 199.532,204.258 200.732 M307.292 238.875 C 307.539 239.617,308.400 239.740,308.400 239.033 C 308.400 238.685,308.115 238.400,307.767 238.400 C 307.418 238.400,307.205 238.614,307.292 238.875 M310.492 242.075 C 310.739 242.817,311.600 242.940,311.600 242.233 C 311.600 241.885,311.315 241.600,310.967 241.600 C 310.618 241.600,310.405 241.814,310.492 242.075 M25.590 253.826 C 24.781 255.954,25.214 258.400,26.400 258.400 C 26.793 258.400,27.218 258.670,27.345 259.000 C 27.948 260.571,28.400 259.371,28.400 256.200 L 28.400 252.800 27.190 252.800 C 26.259 252.800,25.890 253.037,25.590 253.826 M358.400 259.049 C 358.400 259.580,358.509 259.608,359.000 259.200 C 359.330 258.926,359.600 258.634,359.600 258.551 C 359.600 258.468,359.330 258.400,359.000 258.400 C 358.670 258.400,358.400 258.692,358.400 259.049 M348.000 260.410 C 348.000 260.885,349.697 261.600,350.826 261.600 C 352.138 261.600,351.682 260.860,350.100 260.421 C 348.228 259.901,348.000 259.900,348.000 260.410 M328.295 265.487 C 327.765 266.680,327.583 283.297,328.080 285.200 C 328.223 285.750,328.354 286.987,328.370 287.949 C 328.396 289.451,328.484 289.628,328.996 289.204 C 329.323 288.932,329.475 288.522,329.334 288.293 C 329.185 288.053,329.270 287.996,329.533 288.159 C 330.250 288.602,331.682 287.013,331.532 285.940 C 331.403 285.022,331.482 284.997,334.900 284.884 C 338.071 284.780,338.400 284.695,338.400 283.984 C 338.400 282.967,339.776 281.600,340.800 281.600 C 341.568 281.600,341.600 281.333,341.600 274.829 C 341.600 266.281,341.620 266.305,334.000 265.752 C 332.130 265.617,330.193 265.251,329.695 264.940 C 328.853 264.415,328.755 264.453,328.295 265.487 M348.400 265.662 C 348.400 266.499,348.424 266.503,349.200 265.800 C 349.640 265.402,350.000 265.014,350.000 264.938 C 350.000 264.862,349.640 264.800,349.200 264.800 C 348.647 264.800,348.400 265.067,348.400 265.662 M30.400 268.551 C 30.400 268.634,30.670 268.926,31.000 269.200 C 31.491 269.608,31.600 269.580,31.600 269.049 C 31.600 268.692,31.330 268.400,31.000 268.400 C 30.670 268.400,30.400 268.468,30.400 268.551 M33.600 275.120 C 33.600 275.534,34.466 276.400,34.880 276.400 C 35.056 276.400,35.200 276.040,35.200 275.600 C 35.200 275.067,34.933 274.800,34.400 274.800 C 33.960 274.800,33.600 274.944,33.600 275.120 M37.292 278.875 C 37.539 279.617,38.400 279.740,38.400 279.033 C 38.400 278.685,38.115 278.400,37.767 278.400 C 37.418 278.400,37.205 278.614,37.292 278.875 M43.600 285.120 C 43.600 285.534,44.466 286.400,44.880 286.400 C 45.056 286.400,45.200 286.040,45.200 285.600 C 45.200 285.067,44.933 284.800,44.400 284.800 C 43.960 284.800,43.600 284.944,43.600 285.120 M47.292 288.875 C 47.539 289.617,48.400 289.740,48.400 289.033 C 48.400 288.685,48.115 288.400,47.767 288.400 C 47.418 288.400,47.205 288.614,47.292 288.875 M50.492 292.075 C 50.739 292.817,51.600 292.940,51.600 292.233 C 51.600 291.885,51.315 291.600,50.967 291.600 C 50.618 291.600,50.405 291.814,50.492 292.075 M57.400 295.600 C 57.798 296.040,58.186 296.400,58.262 296.400 C 58.338 296.400,58.400 296.040,58.400 295.600 C 58.400 295.047,58.133 294.800,57.538 294.800 C 56.701 294.800,56.697 294.824,57.400 295.600 " stroke="none" fill="#fa20f0" fill-rule="evenodd"></path></g></svg>